<?xml version="1.0" standalone="no"?>
<!DOCTYPE svg PUBLIC "-//W3C//DTD SVG 20010904//EN"
 "http://www.w3.org/TR/2001/REC-SVG-20010904/DTD/svg10.dtd">
<svg version="1.0" xmlns="http://www.w3.org/2000/svg"
 width="139.000000pt" height="139.000000pt" viewBox="0 0 139.000000 139.000000"
 preserveAspectRatio="xMidYMid meet">
<metadata>
Created by potrace 1.11, written by Peter Selinger 2001-2013
</metadata>
<g transform="translate(0.000000,139.000000) scale(0.100000,-0.100000)"
fill="#000000" stroke="none">
<path d="M634 1370 c-31 -12 -67 -60 -114 -152 -23 -46 -46 -87 -50 -93 -36
-49 -213 -406 -233 -470 -31 -96 -37 -192 -17 -279 37 -165 179 -310 349 -356
250 -67 521 86 593 335 23 79 22 173 -3 267 -24 91 -121 287 -316 643 -45 82
-87 115 -147 114 -23 0 -50 -4 -62 -9z"/>
</g>
</svg>
